<mxfile host="www.draw.io" modified="2019-12-06T11:42:08.625Z" agent="Mozilla/5.0 (Windows NT 10.0; Win64; x64) AppleWebKit/537.36 (KHTML, like Gecko) Chrome/78.0.3904.108 Safari/537.36" etag="UabG-3-vq3ilq-V8monq" version="12.3.7" type="github" pages="1">
  <diagram name="Page-1" id="13e1069c-82ec-6db2-03f1-153e76fe0fe0">
    <mxGraphModel dx="1422" dy="761" grid="1" gridSize="10" guides="1" tooltips="1" connect="1" arrows="1" fold="1" page="1" pageScale="1" pageWidth="1100" pageHeight="850" background="#ffffff" math="0" shadow="0">
      <root>
        <mxCell id="0"/>
        <mxCell id="1" parent="0"/>
        <mxCell id="7baba1c4bc27f4b0-2" value=":Object" style="shape=umlLifeline;perimeter=lifelinePerimeter;whiteSpace=wrap;html=1;container=1;collapsible=0;recursiveResize=0;outlineConnect=0;rounded=1;shadow=0;comic=0;labelBackgroundColor=none;strokeWidth=1;fontFamily=Verdana;fontSize=12;align=center;" parent="1" vertex="1">
          <mxGeometry x="343" y="80" width="130" height="410" as="geometry"/>
        </mxCell>
        <mxCell id="7baba1c4bc27f4b0-10" value="" style="html=1;points=[];perimeter=orthogonalPerimeter;rounded=0;shadow=0;comic=0;labelBackgroundColor=none;strokeWidth=1;fontFamily=Verdana;fontSize=12;align=center;" parent="7baba1c4bc27f4b0-2" vertex="1">
          <mxGeometry x="60" y="200" width="10" height="60" as="geometry"/>
        </mxCell>
        <mxCell id="TRZYk4ttniq3M1H2G3y_-2" value="jar Service" style="label;whiteSpace=wrap;html=1;image=img/clipart/Gear_128x128.png" vertex="1" parent="7baba1c4bc27f4b0-2">
          <mxGeometry x="-10" y="-20" width="140" height="60" as="geometry"/>
        </mxCell>
        <mxCell id="7baba1c4bc27f4b0-8" value=":Object" style="shape=umlLifeline;perimeter=lifelinePerimeter;whiteSpace=wrap;html=1;container=1;collapsible=0;recursiveResize=0;outlineConnect=0;rounded=1;shadow=0;comic=0;labelBackgroundColor=none;strokeWidth=1;fontFamily=Verdana;fontSize=12;align=center;" parent="1" vertex="1">
          <mxGeometry x="100" y="80" width="120" height="410" as="geometry"/>
        </mxCell>
        <mxCell id="7baba1c4bc27f4b0-9" value="" style="html=1;points=[];perimeter=orthogonalPerimeter;rounded=0;shadow=0;comic=0;labelBackgroundColor=none;strokeWidth=1;fontFamily=Verdana;fontSize=12;align=center;" parent="7baba1c4bc27f4b0-8" vertex="1">
          <mxGeometry x="55" y="100" width="10" height="290" as="geometry"/>
        </mxCell>
        <mxCell id="TRZYk4ttniq3M1H2G3y_-1" value="POS Client" style="label;whiteSpace=wrap;html=1;image=img/clipart/Gear_128x128.png" vertex="1" parent="7baba1c4bc27f4b0-8">
          <mxGeometry x="-20" y="-20" width="140" height="60" as="geometry"/>
        </mxCell>
        <mxCell id="7baba1c4bc27f4b0-11" value="挂单/提单" style="html=1;verticalAlign=bottom;endArrow=block;entryX=0;entryY=0;labelBackgroundColor=none;fontFamily=Verdana;fontSize=12;edgeStyle=elbowEdgeStyle;elbow=vertical;" parent="1" source="7baba1c4bc27f4b0-9" target="7baba1c4bc27f4b0-10" edge="1">
          <mxGeometry relative="1" as="geometry">
            <mxPoint x="220" y="190" as="sourcePoint"/>
          </mxGeometry>
        </mxCell>
        <mxCell id="TRZYk4ttniq3M1H2G3y_-3" value="" style="html=1;points=[];perimeter=orthogonalPerimeter;rounded=0;shadow=0;comic=0;labelBackgroundColor=none;strokeWidth=1;fontFamily=Verdana;fontSize=12;align=center;" vertex="1" parent="1">
          <mxGeometry x="160" y="200" width="10" height="70" as="geometry"/>
        </mxCell>
        <mxCell id="TRZYk4ttniq3M1H2G3y_-4" value="验证权限" style="html=1;verticalAlign=bottom;endArrow=block;labelBackgroundColor=none;fontFamily=Verdana;fontSize=12;elbow=vertical;edgeStyle=orthogonalEdgeStyle;curved=1;entryX=1;entryY=0.286;entryPerimeter=0;exitX=1.038;exitY=0.345;exitPerimeter=0;" edge="1" parent="1" target="TRZYk4ttniq3M1H2G3y_-3">
          <mxGeometry relative="1" as="geometry">
            <mxPoint x="165" y="182" as="sourcePoint"/>
            <mxPoint x="165" y="130" as="targetPoint"/>
            <Array as="points">
              <mxPoint x="220" y="182"/>
              <mxPoint x="220" y="220"/>
            </Array>
          </mxGeometry>
        </mxCell>
        <mxCell id="TRZYk4ttniq3M1H2G3y_-5" value="return" style="html=1;verticalAlign=bottom;endArrow=open;dashed=1;endSize=8;labelBackgroundColor=none;fontFamily=Verdana;fontSize=12;edgeStyle=elbowEdgeStyle;elbow=vertical;" edge="1" parent="1" source="7baba1c4bc27f4b0-10" target="7baba1c4bc27f4b0-9">
          <mxGeometry relative="1" as="geometry">
            <mxPoint x="170" y="330" as="targetPoint"/>
            <Array as="points">
              <mxPoint x="245" y="330"/>
              <mxPoint x="275" y="330"/>
            </Array>
            <mxPoint x="300" y="330" as="sourcePoint"/>
          </mxGeometry>
        </mxCell>
        <mxCell id="TRZYk4ttniq3M1H2G3y_-6" value="" style="html=1;points=[];perimeter=orthogonalPerimeter;rounded=0;shadow=0;comic=0;labelBackgroundColor=none;strokeWidth=1;fontFamily=Verdana;fontSize=12;align=center;" vertex="1" parent="1">
          <mxGeometry x="160" y="374" width="10" height="70" as="geometry"/>
        </mxCell>
        <mxCell id="TRZYk4ttniq3M1H2G3y_-7" value="加载订单/渲染" style="html=1;verticalAlign=bottom;endArrow=block;labelBackgroundColor=none;fontFamily=Verdana;fontSize=12;elbow=vertical;edgeStyle=orthogonalEdgeStyle;curved=1;entryX=1;entryY=0.286;entryPerimeter=0;exitX=1.038;exitY=0.345;exitPerimeter=0;" edge="1" parent="1" target="TRZYk4ttniq3M1H2G3y_-6">
          <mxGeometry relative="1" as="geometry">
            <mxPoint x="165" y="356" as="sourcePoint"/>
            <mxPoint x="165" y="304" as="targetPoint"/>
            <Array as="points">
              <mxPoint x="220" y="356"/>
              <mxPoint x="220" y="394"/>
            </Array>
          </mxGeometry>
        </mxCell>
      </root>
    </mxGraphModel>
  </diagram>
</mxfile>
